# xmcd
#
# Track frame offsets: 
#        150
#        12122
#        23550
#        42900
#        55205
#        67692
#        82337
#        91662
#        106122
#        121752
#
# Disc length: 1793 seconds
#
# Revision: 0
# Processed by: cddbd v1.5.1PL2 Copyright (c) Steve Scherf et al.
# Submitted via: ExactAudioCopy v0.95b4
#
DISCID=6906ff0a
DTITLE=Jack Quest - Where does love go
DYEAR=1989
DGENRE=Folk
TTITLE0=Look Out Below
TTITLE1=Kick You When You're Down
TTITLE2=Where does Love Go
TTITLE3=Let Go and Let Love
TTITLE4=Change Our Ways
TTITLE5=We're Not Talking Again
TTITLE6=South for the Winter
TTITLE7=I Have Myself to Blame
TTITLE8=Baby Needs Lovin'
TTITLE9=My Mother Told Me So
EXTD=
EXTT0=
EXTT1=
EXTT2=
EXTT3=
EXTT4=
EXTT5=
EXTT6=
EXTT7=
EXTT8=
EXTT9=
PLAYORDER=
